<mxfile host="Electron" agent="Mozilla/5.0 (Windows NT 10.0; Win64; x64) AppleWebKit/537.36 (KHTML, like Gecko) draw.io/26.0.9 Chrome/128.0.6613.186 Electron/32.2.5 Safari/537.36" version="26.0.9">
  <diagram name="PÃ¡gina-1" id="qIIs663yJ5MXGmfDOA5L">
    <mxGraphModel dx="-115" dy="-342" grid="1" gridSize="10" guides="1" tooltips="1" connect="1" arrows="1" fold="1" page="1" pageScale="1" pageWidth="827" pageHeight="1169" math="0" shadow="0">
      <root>
        <mxCell id="0" />
        <mxCell id="1" parent="0" />
        <mxCell id="87BFwtE31WJ0iLyhAi9m-3" style="edgeStyle=orthogonalEdgeStyle;rounded=0;orthogonalLoop=1;jettySize=auto;html=1;entryX=0.5;entryY=1;entryDx=0;entryDy=0;" edge="1" parent="1" source="87BFwtE31WJ0iLyhAi9m-5" target="87BFwtE31WJ0iLyhAi9m-11">
          <mxGeometry relative="1" as="geometry" />
        </mxCell>
        <mxCell id="87BFwtE31WJ0iLyhAi9m-23" style="edgeStyle=orthogonalEdgeStyle;rounded=0;orthogonalLoop=1;jettySize=auto;html=1;" edge="1" parent="1" source="87BFwtE31WJ0iLyhAi9m-5" target="87BFwtE31WJ0iLyhAi9m-12">
          <mxGeometry relative="1" as="geometry">
            <Array as="points">
              <mxPoint x="1270" y="1590" />
              <mxPoint x="1150" y="1590" />
            </Array>
          </mxGeometry>
        </mxCell>
        <mxCell id="87BFwtE31WJ0iLyhAi9m-5" value="Admin" style="whiteSpace=wrap;html=1;rounded=1;" vertex="1" parent="1">
          <mxGeometry x="1210" y="1430" width="120" height="60" as="geometry" />
        </mxCell>
        <mxCell id="87BFwtE31WJ0iLyhAi9m-22" style="edgeStyle=orthogonalEdgeStyle;rounded=0;orthogonalLoop=1;jettySize=auto;html=1;" edge="1" parent="1" source="87BFwtE31WJ0iLyhAi9m-7" target="87BFwtE31WJ0iLyhAi9m-12">
          <mxGeometry relative="1" as="geometry" />
        </mxCell>
        <mxCell id="87BFwtE31WJ0iLyhAi9m-7" value="Empleado" style="whiteSpace=wrap;html=1;rounded=1;" vertex="1" parent="1">
          <mxGeometry x="1070" y="1410" width="120" height="60" as="geometry" />
        </mxCell>
        <mxCell id="87BFwtE31WJ0iLyhAi9m-21" style="edgeStyle=orthogonalEdgeStyle;rounded=0;orthogonalLoop=1;jettySize=auto;html=1;" edge="1" parent="1" source="87BFwtE31WJ0iLyhAi9m-9" target="87BFwtE31WJ0iLyhAi9m-12">
          <mxGeometry relative="1" as="geometry">
            <Array as="points">
              <mxPoint x="960" y="1630" />
              <mxPoint x="960" y="1630" />
            </Array>
          </mxGeometry>
        </mxCell>
        <mxCell id="87BFwtE31WJ0iLyhAi9m-9" value="Cliente" style="rounded=1;whiteSpace=wrap;html=1;" vertex="1" parent="1">
          <mxGeometry x="900" y="1410" width="120" height="60" as="geometry" />
        </mxCell>
        <mxCell id="87BFwtE31WJ0iLyhAi9m-10" value="Proveedor" style="rounded=1;whiteSpace=wrap;html=1;" vertex="1" parent="1">
          <mxGeometry x="1326" y="1589" width="120" height="60" as="geometry" />
        </mxCell>
        <mxCell id="87BFwtE31WJ0iLyhAi9m-11" value="Banco" style="rounded=1;whiteSpace=wrap;html=1;" vertex="1" parent="1">
          <mxGeometry x="1252" y="1316" width="120" height="60" as="geometry" />
        </mxCell>
        <mxCell id="87BFwtE31WJ0iLyhAi9m-24" style="edgeStyle=orthogonalEdgeStyle;rounded=0;orthogonalLoop=1;jettySize=auto;html=1;" edge="1" parent="1" source="87BFwtE31WJ0iLyhAi9m-12" target="87BFwtE31WJ0iLyhAi9m-10">
          <mxGeometry relative="1" as="geometry">
            <Array as="points">
              <mxPoint x="1386" y="1880" />
            </Array>
          </mxGeometry>
        </mxCell>
        <mxCell id="87BFwtE31WJ0iLyhAi9m-12" value="Erp obleas la villa" style="swimlane;whiteSpace=wrap;html=1;" vertex="1" parent="1">
          <mxGeometry x="866" y="1694" width="460" height="400" as="geometry" />
        </mxCell>
        <mxCell id="87BFwtE31WJ0iLyhAi9m-13" value="Aplicacion web" style="rounded=1;whiteSpace=wrap;html=1;" vertex="1" parent="87BFwtE31WJ0iLyhAi9m-12">
          <mxGeometry x="154" y="64" width="120" height="60" as="geometry" />
        </mxCell>
        <mxCell id="87BFwtE31WJ0iLyhAi9m-19" style="edgeStyle=orthogonalEdgeStyle;rounded=0;orthogonalLoop=1;jettySize=auto;html=1;" edge="1" parent="87BFwtE31WJ0iLyhAi9m-12" source="87BFwtE31WJ0iLyhAi9m-14" target="87BFwtE31WJ0iLyhAi9m-15">
          <mxGeometry relative="1" as="geometry">
            <Array as="points">
              <mxPoint x="184" y="275" />
              <mxPoint x="94" y="275" />
            </Array>
          </mxGeometry>
        </mxCell>
        <mxCell id="87BFwtE31WJ0iLyhAi9m-20" style="edgeStyle=orthogonalEdgeStyle;rounded=0;orthogonalLoop=1;jettySize=auto;html=1;" edge="1" parent="87BFwtE31WJ0iLyhAi9m-12" source="87BFwtE31WJ0iLyhAi9m-14" target="87BFwtE31WJ0iLyhAi9m-16">
          <mxGeometry relative="1" as="geometry">
            <Array as="points">
              <mxPoint x="244" y="270" />
              <mxPoint x="354" y="270" />
            </Array>
          </mxGeometry>
        </mxCell>
        <mxCell id="87BFwtE31WJ0iLyhAi9m-14" value="Backend(Python)" style="rounded=1;whiteSpace=wrap;html=1;" vertex="1" parent="87BFwtE31WJ0iLyhAi9m-12">
          <mxGeometry x="154" y="180" width="120" height="60" as="geometry" />
        </mxCell>
        <mxCell id="87BFwtE31WJ0iLyhAi9m-15" value="Base de datos" style="rounded=1;whiteSpace=wrap;html=1;" vertex="1" parent="87BFwtE31WJ0iLyhAi9m-12">
          <mxGeometry x="34" y="310" width="120" height="60" as="geometry" />
        </mxCell>
        <mxCell id="87BFwtE31WJ0iLyhAi9m-16" value="Modulo pagos" style="rounded=1;whiteSpace=wrap;html=1;" vertex="1" parent="87BFwtE31WJ0iLyhAi9m-12">
          <mxGeometry x="294" y="310" width="120" height="60" as="geometry" />
        </mxCell>
        <mxCell id="87BFwtE31WJ0iLyhAi9m-18" value="" style="endArrow=classic;startArrow=classic;html=1;rounded=0;" edge="1" parent="87BFwtE31WJ0iLyhAi9m-12" source="87BFwtE31WJ0iLyhAi9m-14" target="87BFwtE31WJ0iLyhAi9m-13">
          <mxGeometry width="50" height="50" relative="1" as="geometry">
            <mxPoint x="84" y="200" as="sourcePoint" />
            <mxPoint x="134" y="150" as="targetPoint" />
          </mxGeometry>
        </mxCell>
      </root>
    </mxGraphModel>
  </diagram>
</mxfile>
